<mxfile host="app.diagrams.net" modified="2023-12-20T07:22:40.527Z" agent="Mozilla/5.0 (Macintosh; Intel Mac OS X 10.15; rv:121.0) Gecko/20100101 Firefox/121.0" etag="ZXIc02M8f_f6XNveSQHS" version="22.1.11" type="device">
  <diagram name="Page-1" id="fPaUq7UizsbOj6Rvo8v5">
    <mxGraphModel dx="1143" dy="739" grid="1" gridSize="10" guides="1" tooltips="1" connect="1" arrows="1" fold="1" page="1" pageScale="1" pageWidth="827" pageHeight="1169" math="0" shadow="0">
      <root>
        <mxCell id="0" />
        <mxCell id="1" parent="0" />
        <mxCell id="FwhXUpBAW3lRBLKA5vBd-1" value="&lt;div&gt;&lt;font style=&quot;font-size: 14px;&quot;&gt;Gosmee Server&lt;/font&gt;&lt;br&gt;&lt;/div&gt;&lt;br&gt;&lt;font style=&quot;font-size: 14px;&quot;&gt;your own running on a small public VM or https://smee.io&lt;/font&gt;" style="whiteSpace=wrap;html=1;aspect=fixed;fontSize=11;fillColor=#e1d5e7;strokeColor=#9673a6;" parent="1" vertex="1">
          <mxGeometry x="160" y="130" width="150" height="150" as="geometry" />
        </mxCell>
        <mxCell id="sgxUf6Le4ui27Xz1OOlA-4" style="edgeStyle=orthogonalEdgeStyle;rounded=0;orthogonalLoop=1;jettySize=auto;html=1;entryX=1;entryY=0.5;entryDx=0;entryDy=0;fillColor=#f5f5f5;strokeColor=#666666;" edge="1" parent="1" source="FwhXUpBAW3lRBLKA5vBd-2" target="FwhXUpBAW3lRBLKA5vBd-1">
          <mxGeometry relative="1" as="geometry" />
        </mxCell>
        <mxCell id="FwhXUpBAW3lRBLKA5vBd-2" value="&lt;div&gt;&lt;font style=&quot;font-size: 14px;&quot;&gt;Service Provider&lt;/font&gt;&lt;/div&gt;&lt;div&gt;&lt;br&gt;&lt;/div&gt;&lt;div&gt;&lt;font style=&quot;font-size: 12px;&quot;&gt;GitHub, Gitlab or any&amp;nbsp;&lt;/font&gt;&lt;/div&gt;&lt;div&gt;&lt;font size=&quot;3&quot;&gt;service generating&lt;/font&gt;&lt;/div&gt;&lt;div&gt;&lt;font size=&quot;3&quot;&gt;webhook&lt;/font&gt;&lt;br&gt;&lt;/div&gt;" style="whiteSpace=wrap;html=1;aspect=fixed;fontSize=11;fillColor=#f5f5f5;fontColor=#333333;strokeColor=#666666;" parent="1" vertex="1">
          <mxGeometry x="420" y="130" width="150" height="150" as="geometry" />
        </mxCell>
        <mxCell id="FwhXUpBAW3lRBLKA5vBd-4" value="Webhook Payload" style="text;html=1;strokeColor=none;fillColor=none;align=center;verticalAlign=middle;whiteSpace=wrap;rounded=0;" parent="1" vertex="1">
          <mxGeometry x="313.5" y="170" width="100" height="30" as="geometry" />
        </mxCell>
        <mxCell id="FwhXUpBAW3lRBLKA5vBd-11" style="edgeStyle=orthogonalEdgeStyle;rounded=0;orthogonalLoop=1;jettySize=auto;html=1;entryX=0;entryY=0.5;entryDx=0;entryDy=0;fillColor=#f5f5f5;strokeColor=#666666;" parent="1" source="FwhXUpBAW3lRBLKA5vBd-5" target="FwhXUpBAW3lRBLKA5vBd-10" edge="1">
          <mxGeometry relative="1" as="geometry" />
        </mxCell>
        <mxCell id="sgxUf6Le4ui27Xz1OOlA-3" style="edgeStyle=orthogonalEdgeStyle;rounded=0;orthogonalLoop=1;jettySize=auto;html=1;entryX=0.5;entryY=1;entryDx=0;entryDy=0;fillColor=#f5f5f5;strokeColor=#666666;" edge="1" parent="1" source="FwhXUpBAW3lRBLKA5vBd-5" target="FwhXUpBAW3lRBLKA5vBd-1">
          <mxGeometry relative="1" as="geometry">
            <mxPoint x="235" y="290" as="targetPoint" />
          </mxGeometry>
        </mxCell>
        <mxCell id="FwhXUpBAW3lRBLKA5vBd-5" value="&lt;div&gt;&lt;font style=&quot;font-size: 14px;&quot;&gt;Gosmee client&lt;/font&gt;&lt;br&gt;&lt;/div&gt;&lt;br&gt;&lt;div&gt;&lt;font style=&quot;font-size: 12px;&quot;&gt;Running on your laptop, or in a Kubernetes Deployment.&lt;/font&gt;&lt;br&gt;&lt;/div&gt;&lt;div&gt;&lt;br&gt;&lt;/div&gt;&lt;div&gt;&lt;font style=&quot;font-size: 12px;&quot;&gt;Listening for new changes via server side events&lt;/font&gt;&lt;/div&gt;" style="whiteSpace=wrap;html=1;aspect=fixed;fontSize=11;fillColor=#e1d5e7;strokeColor=#9673a6;" parent="1" vertex="1">
          <mxGeometry x="160" y="360" width="150" height="150" as="geometry" />
        </mxCell>
        <mxCell id="FwhXUpBAW3lRBLKA5vBd-10" value="&lt;div&gt;&lt;font style=&quot;font-size: 14px;&quot;&gt;Local Service&lt;/font&gt;&lt;/div&gt;&lt;div&gt;&lt;br&gt;&lt;/div&gt;&lt;font style=&quot;font-size: 12px;&quot;&gt;Receive the Webhook payload exactly like sent from the Service Provider&lt;/font&gt;" style="whiteSpace=wrap;html=1;aspect=fixed;fontSize=11;fillColor=#f5f5f5;fontColor=#333333;strokeColor=#666666;" parent="1" vertex="1">
          <mxGeometry x="420" y="360" width="150" height="150" as="geometry" />
        </mxCell>
      </root>
    </mxGraphModel>
  </diagram>
</mxfile>
